PathFileType	4	(X/Y/Z)	RBDS001static.trc
DataRate	CameraRate	NumFrames	NumMarkers	Units	OrigDataRate	OrigDataStartFrame	OrigNumFrames
150.000000	150.000000	4	48	mm	150.000000	0	150
Frame#	Time	L.Ankle			L.Ankle.Medial			L.ASIS			L.GTR			L.Heel.Bottom			L.Heel.Lateral			L.Heel.Top			L.HF			L.Iliac.Crest			L.Knee			L.Knee.Medial			L.MT1			L.MT2			L.MT5			L.PSIS			L.Shank.Bottom.Lateral			L.Shank.Bottom.Medial			L.Shank.Top.Lateral			L.Shank.Top.Medial			L.Thigh.Bottom.Lateral			L.Thigh.Bottom.Medial			L.Thigh.Top.Lateral			L.Thigh.Top.Medial			L.TT			R.Ankle			R.Ankle.Medial			R.ASIS			R.GTR			R.Heel.Bottom			R.Heel.Lateral			R.Heel.Top			R.HF			R.Iliac.Crest			R.Knee			R.Knee.Medial			R.MT1			R.MT2			R.MT5			R.PSIS			R.Shank.Bottom.Lateral			R.Shank.Bottom.Medial			R.Shank.Top.Lateral			R.Shank.Top.Medial			R.Thigh.Bottom.Lateral			R.Thigh.Bottom.Medial			R.Thigh.Top.Lateral			R.Thigh.Top.Medial			R.TT			
		X1	Y1	Z1	X2	Y2	Z2	X3	Y3	Z3	X4	Y4	Z4	X5	Y5	Z5	X6	Y6	Z6	X7	Y7	Z7	X8	Y8	Z8	X9	Y9	Z9	X10	Y10	Z10	X11	Y11	Z11	X12	Y12	Z12	X13	Y13	Z13	X14	Y14	Z14	X15	Y15	Z15	X16	Y16	Z16	X17	Y17	Z17	X18	Y18	Z18	X19	Y19	Z19	X20	Y20	Z20	X21	Y21	Z21	X22	Y22	Z22	X23	Y23	Z23	X24	Y24	Z24	X25	Y25	Z25	X26	Y26	Z26	X27	Y27	Z27	X28	Y28	Z28	X29	Y29	Z29	X30	Y30	Z30	X31	Y31	Z31	X32	Y32	Z32	X33	Y33	Z33	X34	Y34	Z34	X35	Y35	Z35	X36	Y36	Z36	X37	Y37	Z37	X38	Y38	Z38	X39	Y39	Z39	X40	Y40	Z40	X41	Y41	Z41	X42	Y42	Z42	X43	Y43	Z43	X44	Y44	Z44	X45	Y45	Z45	X46	Y46	Z46	X47	Y47	Z47	X48	Y48	Z48	

1	0	705.0628662109375	108.7743301391602	1050.909423828125	725.5350952148438	119.272575378418	1129.00244140625	876.6487426757813	1067.346435546875	1126.366577148438	799.1972045898438	965.5411376953125	1056.404052734375	633.3013305664063	43.01739883422852	1085.099731445313	663.4266967773438	60.35805130004883	1046.784790039063	641.8136596679688	90.506591796875	1088.817749023438	734.1435546875	490.4256896972656	1039.742797851563	815.203857421875	1135.015380859375	1089.476440429688	751.8275146484375	550.5435180664063	1051.9580078125	732.0015869140625	539.8268432617188	1161.952392578125	854.93359375	62.82175827026367	1133.4765625	861.0218505859375	69.66690063476563	1088.646240234375	827.1078491210938	56.5722541809082	1026.688232421875	698.818603515625	1098.937255859375	1181.110229492188	713.4152221679688	191.5509796142578	1043.465087890625	670.4465942382813	190.6231079101563	1071.8486328125	708.8114013671875	271.357666015625	1031.305297851563	665.4720458984375	274.6811828613281	1063.138671875	742.7291259765625	675.5199584960938	1042.934448242188	689.62158203125	678.143310546875	1093.523315429688	740.452880859375	786.2023315429688	1039.996826171875	695.5167846679688	788.8233032226563	1092.819458007813	785.8560791015625	461.6083679199219	1091.69287109375	702.005126953125	110.4684219360352	1397.335571289063	720.0236206054688	116.6365737915039	1314.727416992188	854.787109375	1060.782104492188	1336.967895507813	760.9237060546875	966.6751098632813	1384.429443359375	627.521484375	42.54607009887695	1360.100952148438	658.378173828125	58.9223747253418	1403.288208007813	638.9235229492188	90.71942138671875	1359.629272460938	730.9105224609375	491.5600891113281	1397.473266601563	791.372802734375	1135.607177734375	1358.432250976563	733.7213134765625	553.3200073242188	1386.728271484375	730.4688110351563	540.0547485351563	1270.549194335938	850.19873046875	64.42405700683594	1319.648071289063	855.0897216796875	73.19654083251953	1362.0361328125	829.7216186523438	56.38104248046875	1427.111083984375	694.9320068359375	1097.749877929688	1257.819091796875	701.94921875	190.5139312744141	1400.7138671875	660.6155395507813	194.1358947753906	1364.75048828125	698.093994140625	271.2618103027344	1410.60986328125	658.4638671875	273.7745056152344	1373.562744140625	733.1859741210938	651.2342529296875	1396.273681640625	679.0889892578125	650.4105224609375	1345.514282226563	725.0828247070313	761.8389282226563	1398.587158203125	676.568359375	760.4317016601563	1347.822631835938	780.4266357421875	462.7108764648438	1343.64697265625	
2	0.006666666666666667	705.0668334960938	108.7668762207031	1050.910888671875	725.5303955078125	119.266960144043	1129.005004882813	876.68603515625	1067.344360351563	1126.387573242188	799.2327880859375	965.5320434570313	1056.404296875	633.3062133789063	43.01457977294922	1085.101806640625	663.4266967773438	60.36173248291016	1046.782104492188	641.8140869140625	90.49910736083984	1088.823852539063	734.17919921875	490.4192199707031	1039.743286132813	815.2699584960938	1135.031005859375	1089.49462890625	751.872314453125	550.5499267578125	1051.959716796875	732.0288696289063	539.8211059570313	1161.960327148438	854.930419921875	62.81777954101563	1133.476684570313	861.0146484375	69.66469573974609	1088.645385742188	827.1119995117188	56.56883239746094	1026.694580078125	698.8574829101563	1098.94580078125	1181.100341796875	713.42822265625	191.5548095703125	1043.467651367188	670.4548950195313	190.631591796875	1071.840454101563	708.8170166015625	271.354736328125	1031.297973632813	665.4834594726563	274.6915283203125	1063.132934570313	742.7684326171875	675.5126342773438	1042.94140625	689.6657104492188	678.1394653320313	1093.508178710938	740.5060424804688	786.201171875	1039.9921875	695.5624389648438	788.822265625	1092.816528320313	785.8812866210938	461.60107421875	1091.695190429688	701.9940185546875	110.4751205444336	1397.327270507813	720.025390625	116.6247711181641	1314.720458984375	854.8054809570313	1060.781494140625	1336.978149414063	760.930419921875	966.6746215820313	1384.429809570313	627.514892578125	42.552001953125	1360.090087890625	658.3822631835938	58.92467880249023	1403.28662109375	638.9161987304688	90.72154998779297	1359.630493164063	730.915771484375	491.5665588378906	1397.445922851563	791.3964233398438	1135.622802734375	1358.431518554688	733.7216186523438	553.32080078125	1386.734252929688	730.4883422851563	540.0506591796875	1270.542846679688	850.2036743164063	64.42462158203125	1319.65283203125	855.088623046875	73.18680572509766	1362.0234375	829.71533203125	56.38003921508789	1427.116577148438	694.9617309570313	1097.753662109375	1257.826171875	701.9506225585938	190.5137786865234	1400.713012695313	660.6200561523438	194.1435852050781	1364.731811523438	698.1017456054688	271.2621459960938	1410.600463867188	658.4689331054688	273.7818298339844	1373.55712890625	733.1810302734375	651.2322387695313	1396.266845703125	679.0962524414063	650.411865234375	1345.495483398438	725.0890502929688	761.8275146484375	1398.581420898438	676.5841674804688	760.4328002929688	1347.808349609375	780.4451904296875	462.7125549316406	1343.645751953125	
3	0.01333333333333333	705.0654296875	108.7711334228516	1050.90283203125	725.532958984375	119.2670669555664	1129.006103515625	876.7369384765625	1067.349853515625	1126.407470703125	799.294189453125	965.5200805664063	1056.4248046875	633.3043212890625	43.00600051879883	1085.099365234375	663.4286499023438	60.3592529296875	1046.77783203125	641.8090209960938	90.50083923339844	1088.816772460938	734.2054443359375	490.4207763671875	1039.746337890625	815.3494262695313	1135.048828125	1089.519775390625	751.9012451171875	550.5357055664063	1051.964233398438	732.0379638671875	539.8239135742188	1161.959106445313	854.9254150390625	62.82580184936523	1133.472900390625	861.0283813476563	69.66350555419922	1088.6484375	827.1036987304688	56.57316970825195	1026.684326171875	698.8909912109375	1098.936645507813	1181.085815429688	713.4329223632813	191.5553588867188	1043.466064453125	670.46142578125	190.6305236816406	1071.837768554688	708.8314208984375	271.3486022949219	1031.296630859375	665.4912719726563	274.6910705566406	1063.131713867188	742.8238525390625	675.50927734375	1042.938598632813	689.702880859375	678.1439819335938	1093.503173828125	740.5521850585938	786.2019653320313	1039.992553710938	695.6110229492188	788.8176879882813	1092.804809570313	785.8953247070313	461.6044616699219	1091.699096679688	701.9971313476563	110.4677124023438	1397.32080078125	720.0115966796875	116.6268768310547	1314.713012695313	854.8119506835938	1060.775146484375	1336.993286132813	760.9315185546875	966.6694946289063	1384.433227539063	627.5149536132813	42.54142761230469	1360.09814453125	658.3743286132813	58.92376327514648	1403.288330078125	638.9197998046875	90.71717071533203	1359.632446289063	730.9275512695313	491.5623779296875	1397.448852539063	791.4063720703125	1135.619995117188	1358.434936523438	733.7374267578125	553.3225708007813	1386.7275390625	730.5067138671875	540.0452270507813	1270.535034179688	850.1953125	64.42636871337891	1319.643432617188	855.0916748046875	73.18984985351563	1362.031127929688	829.71923828125	56.38373184204102	1427.117065429688	694.989501953125	1097.751342773438	1257.795532226563	701.9505615234375	190.5117340087891	1400.700805664063	660.613037109375	194.1462860107422	1364.724243164063	698.0974731445313	271.2667846679688	1410.595825195313	658.4697265625	273.7779541015625	1373.554565429688	733.1853637695313	651.2267456054688	1396.26904296875	679.10546875	650.412841796875	1345.48583984375	725.0940551757813	761.83251953125	1398.583129882813	676.592529296875	760.4287109375	1347.793579101563	780.457763671875	462.7253723144531	1343.636352539063	
4	0.02	705.0670776367188	108.7706146240234	1050.907104492188	725.5359497070313	119.2678146362305	1129.0029296875	876.7803955078125	1067.346435546875	1126.431274414063	799.340087890625	965.5256958007813	1056.421630859375	633.3020629882813	43.01553726196289	1085.103271484375	663.42578125	60.36288070678711	1046.773071289063	641.8123168945313	90.50734710693359	1088.823608398438	734.2234497070313	490.4180297851563	1039.744750976563	815.4159545898438	1135.055786132813	1089.539184570313	751.9422607421875	550.5330200195313	1051.981323242188	732.0497436523438	539.8165283203125	1161.971435546875	854.9385375976563	62.82290649414063	1133.484375	861.0211181640625	69.65699768066406	1088.643188476563	827.104736328125	56.57547378540039	1026.6884765625	698.9264526367188	1098.939208984375	1181.068725585938	713.443359375	191.5478973388672	1043.472412109375	670.4645385742188	190.6399841308594	1071.836669921875	708.8516845703125	271.3564147949219	1031.301635742188	665.5009155273438	274.6966857910156	1063.129516601563	742.86767578125	675.5084228515625	1042.939086914063	689.746826171875	678.1399536132813	1093.495483398438	740.6068725585938	786.1970825195313	1039.990234375	695.650390625	788.8176879882813	1092.7880859375	785.92724609375	461.6082763671875	1091.711181640625	701.9963989257813	110.4700775146484	1397.321533203125	720.0178833007813	116.6180191040039	1314.708251953125	854.82666015625	1060.775024414063	1336.991088867188	760.9434204101563	966.6644287109375	1384.425659179688	627.515625	42.55074310302734	1360.093872070313	658.3822631835938	58.93097686767578	1403.291625976563	638.9168090820313	90.71347045898438	1359.62939453125	730.9358520507813	491.560546875	1397.44384765625	791.41650390625	1135.599975585938	1358.413696289063	733.7491455078125	553.3319091796875	1386.724487304688	730.54296875	540.0442504882813	1270.538330078125	850.1962280273438	64.42910003662109	1319.655029296875	855.0918579101563	73.19344329833984	1362.033081054688	829.71630859375	56.37646865844727	1427.114868164063	695.0076904296875	1097.748901367188	1257.784301757813	701.9453125	190.5155181884766	1400.704467773438	660.6204833984375	194.1411437988281	1364.72265625	698.1033325195313	271.2610168457031	1410.5947265625	658.4780883789063	273.7828979492188	1373.552124023438	733.191162109375	651.232177734375	1396.261962890625	679.1228637695313	650.41162109375	1345.468139648438	725.0940551757813	761.8233642578125	1398.57568359375	676.61279296875	760.4254760742188	1347.788452148438	780.4710083007813	462.7216491699219	1343.6328125	
